<?xml version="1.0" encoding="utf-8"?>
<!-- Generator: Adobe Illustrator 25.0.0, SVG Export Plug-In . SVG Version: 6.00 Build 0)  -->
<svg version="1.1" id="Layer_1" xmlns="http://www.w3.org/2000/svg" xmlns:xlink="http://www.w3.org/1999/xlink" x="0px" y="0px"
	 viewBox="0 0 678 265" style="enable-background:new 0 0 678 265;" xml:space="preserve">
<style type="text/css">
	.st0{opacity:4.000000e-02;}
</style>
<polygon class="st0" points="-5.9,-0.7 -33.9,12.1 -22.8,36.2 5.1,23.3 38.4,95.5 10.5,108.4 21.5,132.5 49.5,119.6 62.4,84.5 
	29.2,12.3 "/>
<polygon class="st0" points="-33.8,128.8 -67.1,56.6 -39.1,43.7 -50.2,19.6 -78.1,32.5 -91.1,67.6 -57.9,139.8 -22.7,152.8 5.2,140 
	-5.9,115.9 "/>
<polygon class="st0" points="-25.9,43.4 -39.2,14.6 -44.9,17.2 -31.6,46.1 -60,59.1 -31.2,121.7 -2.8,108.7 10.5,137.5 16.2,134.9 
	2.9,106 31.4,92.9 2.6,30.3 "/>
<polygon class="st0" points="142,55 114,67.9 125.1,91.9 153,79.1 186.3,151.3 158.3,164.1 169.4,188.2 197.4,175.4 210.3,140.2 
	177.1,68 "/>
<polygon class="st0" points="114.1,184.5 80.8,112.3 108.7,99.5 97.7,75.4 69.8,88.3 56.8,123.4 90,195.6 125.2,208.6 153.1,195.7 
	142,171.7 "/>
<polygon class="st0" points="122,99.2 108.7,70.3 103,73 116.3,101.9 87.9,114.9 116.7,177.5 145.1,164.4 158.4,193.3 164.1,190.6 
	150.8,161.8 179.3,148.7 150.5,86.1 "/>
<polygon class="st0" points="291.4,111.7 263.4,124.5 274.5,148.6 302.5,135.7 335.7,207.9 307.8,220.8 318.8,244.9 346.8,232 
	359.7,196.9 326.5,124.7 "/>
<polygon class="st0" points="263.5,241.2 230.2,169 258.2,156.1 247.1,132.1 219.2,144.9 206.2,180 239.4,252.2 274.6,265.2 
	302.5,252.4 291.4,228.3 "/>
<polygon class="st0" points="271.4,155.8 258.1,127 252.4,129.6 265.7,158.5 237.3,171.5 266.1,234.1 294.5,221.1 307.8,250 
	313.5,247.3 300.2,218.4 328.7,205.3 299.9,142.7 "/>
<polygon class="st0" points="325.7,257.1 297.8,270 308.8,294 336.8,281.2 370,353.4 342.1,366.2 353.2,390.3 381.1,377.4 
	394.1,342.3 360.8,270.1 "/>
<polygon class="st0" points="297.6,386.4 264.4,314.2 292.3,301.3 281.2,277.2 253.3,290.1 240.3,325.2 273.5,397.4 308.7,410.4 
	336.6,397.6 325.5,373.5 "/>
<polygon class="st0" points="305.5,301 292.3,272.1 286.5,274.8 299.8,303.7 271.4,316.7 300.2,379.3 328.6,366.3 341.9,395.1 
	347.6,392.5 334.4,363.6 362.8,350.5 334,287.9 "/>
<polygon class="st0" points="262.7,-37.6 234.8,-24.7 245.9,-0.6 273.8,-13.5 307,58.7 279.1,71.6 290.2,95.6 318.1,82.8 
	331.1,47.6 297.9,-24.6 "/>
<polygon class="st0" points="234.8,91.9 201.6,19.7 229.5,6.9 218.4,-17.2 190.5,-4.3 177.5,30.8 210.8,103 245.9,116 273.8,103.2 
	262.8,79.1 "/>
<polygon class="st0" points="242.8,6.6 229.5,-22.3 223.7,-19.6 237,9.3 208.7,22.3 237.5,84.9 265.8,71.8 279.1,100.7 284.9,98.1 
	271.6,69.2 300.1,56.1 271.3,-6.5 "/>
<polygon class="st0" points="24.6,149.4 -3.4,162.3 7.7,186.3 35.6,173.5 68.9,245.7 41,258.6 52,282.6 80,269.8 92.9,234.6 
	59.7,162.4 "/>
<polygon class="st0" points="-3.3,278.9 -36.6,206.7 -8.7,193.9 -19.7,169.8 -47.6,182.7 -60.6,217.8 -27.4,290 7.8,303 35.7,290.2 
	24.6,266.1 "/>
<polygon class="st0" points="4.6,193.6 -8.7,164.7 -14.4,167.4 -1.1,196.3 -29.5,209.3 -0.7,271.9 27.7,258.8 41,287.7 46.7,285.1 
	33.4,256.2 61.9,243.1 33.1,180.5 "/>
<polygon class="st0" points="112.2,-89.2 84.3,-76.4 95.3,-52.3 123.3,-65.2 156.5,7 128.6,19.9 139.7,44 167.6,31.1 180.5,-4 
	147.3,-76.2 "/>
<polygon class="st0" points="84.3,40.3 51.1,-31.9 79,-44.8 67.9,-68.8 40,-56 27,-20.8 60.2,51.4 95.4,64.4 123.3,51.5 112.2,27.4 
	"/>
<polygon class="st0" points="92.3,-45 79,-73.9 73.2,-71.3 86.5,-42.4 58.1,-29.3 86.9,33.2 115.3,20.2 128.6,49.1 134.4,46.4 
	121.1,17.5 149.5,4.4 120.7,-58.1 "/>
<polygon class="st0" points="176.1,199.3 148.2,212.2 159.3,236.2 187.2,223.4 220.4,295.6 192.5,308.4 203.6,332.5 231.5,319.6 
	244.5,284.5 211.2,212.3 "/>
<polygon class="st0" points="148.2,328.8 115,256.6 142.9,243.8 131.8,219.7 103.9,232.5 90.9,267.7 124.2,339.9 159.3,352.9 
	187.2,340 176.1,316 "/>
<polygon class="st0" points="156.2,243.5 142.9,214.6 137.1,217.3 150.4,246.1 122.1,259.2 150.9,321.8 179.2,308.7 192.5,337.6 
	198.3,334.9 185,306.1 213.4,293 184.6,230.4 "/>
<polygon class="st0" points="418.6,30.1 390.6,43 401.7,67.1 429.6,54.2 462.9,126.4 434.9,139.3 446,163.3 473.9,150.5 
	486.9,115.3 453.7,43.1 "/>
<polygon class="st0" points="390.7,159.7 357.4,87.5 385.3,74.6 374.3,50.5 346.4,63.4 333.4,98.5 366.6,170.7 401.7,183.7 
	429.6,170.9 418.6,146.8 "/>
<polygon class="st0" points="398.6,74.3 385.3,45.4 379.5,48.1 392.8,77 364.5,90 393.3,152.6 421.6,139.6 434.9,168.4 440.7,165.8 
	427.4,136.9 455.9,123.8 427.1,61.2 "/>
<polygon class="st0" points="386.6,-114.7 358.7,-101.9 369.8,-77.8 397.7,-90.7 431,-18.5 403,-5.6 414.1,18.5 442,5.6 455,-29.5 
	421.8,-101.7 "/>
<polygon class="st0" points="358.8,14.8 325.5,-57.4 353.4,-70.3 342.3,-94.3 314.4,-81.5 301.5,-46.3 334.7,25.9 369.8,38.8 
	397.7,26 386.7,1.9 "/>
<polygon class="st0" points="366.7,-70.5 353.4,-99.4 347.6,-96.8 360.9,-67.9 332.6,-54.8 361.4,7.7 389.7,-5.3 403,23.6 
	408.8,20.9 395.5,-8 424,-21.1 395.2,-83.6 "/>
<polygon class="st0" points="566.4,85.9 538.5,98.8 549.6,122.8 577.5,110 610.8,182.2 582.8,195 593.9,219.1 621.8,206.2 
	634.8,171.1 601.6,98.9 "/>
<polygon class="st0" points="538.6,215.4 505.3,143.2 533.2,130.4 522.1,106.3 494.2,119.1 481.3,154.3 514.5,226.5 549.6,239.5 
	577.5,226.6 566.5,202.6 "/>
<polygon class="st0" points="546.5,130.1 533.2,101.2 527.4,103.9 540.7,132.7 512.4,145.8 541.2,208.4 569.5,195.3 582.8,224.2 
	588.6,221.5 575.3,192.7 603.8,179.6 575,117 "/>
<polygon class="st0" points="715.6,142.3 687.7,155.2 698.8,179.2 726.7,166.4 760,238.6 732,251.4 743.1,275.5 771,262.6 
	784,227.5 750.8,155.3 "/>
<polygon class="st0" points="688,272.1 654.7,199.9 682.6,187 671.6,162.9 643.7,175.8 630.7,210.9 663.9,283.1 699,296.1 
	727,283.3 715.9,259.2 "/>
<polygon class="st0" points="695.9,186.7 682.6,157.8 676.9,160.5 690.1,189.4 661.8,202.4 690.6,265 719,252 732.2,280.8 
	738,278.2 724.7,249.3 753.2,236.2 724.4,173.6 "/>
<polygon class="st0" points="687.2,-6.7 659.3,6.2 670.4,30.3 698.3,17.4 731.5,89.6 703.6,102.5 714.7,126.5 742.6,113.7 
	755.6,78.5 722.3,6.3 "/>
<polygon class="st0" points="659.3,122.8 626.1,50.6 654,37.8 642.9,13.7 615,26.6 602,61.7 635.3,133.9 670.4,146.9 698.3,134.1 
	687.2,110 "/>
<polygon class="st0" points="667.3,37.5 654,8.6 648.2,11.3 661.5,40.2 633.2,53.2 662,115.8 690.3,102.7 703.6,131.6 709.4,129 
	696.1,100.1 724.5,87 695.7,24.4 "/>
<polygon class="st0" points="449.1,180.3 421.1,193.2 432.2,217.2 460.1,204.4 493.4,276.6 465.4,289.4 476.5,313.5 504.4,300.7 
	517.4,265.5 484.2,193.3 "/>
<polygon class="st0" points="421.2,309.8 387.9,237.6 415.8,224.8 404.8,200.7 376.8,213.6 363.9,248.7 397.1,320.9 432.2,333.9 
	460.1,321 449.1,297 "/>
<polygon class="st0" points="429.1,224.5 415.8,195.6 410,198.3 423.3,227.2 395,240.2 423.8,302.8 452.1,289.7 465.4,318.6 
	471.2,315.9 457.9,287.1 486.4,274 457.6,211.4 "/>
<polygon class="st0" points="536.7,-58.3 508.7,-45.5 519.8,-21.4 547.7,-34.3 581,37.9 553.1,50.8 564.1,74.9 592.1,62 605,26.9 
	571.8,-45.3 "/>
<polygon class="st0" points="508.8,71.2 475.5,-1 503.5,-13.9 492.4,-37.9 464.5,-25.1 451.5,10.1 484.7,82.3 519.9,95.2 
	547.8,82.4 536.7,58.3 "/>
<polygon class="st0" points="516.7,-14.2 503.4,-43 497.7,-40.4 511,-11.5 482.6,1.6 511.4,64.1 539.8,51.1 553.1,80 558.8,77.3 
	545.5,48.4 574,35.3 545.2,-27.3 "/>
<polygon class="st0" points="600.6,230.2 572.7,243.1 583.7,267.1 611.7,254.3 644.9,326.5 617,339.3 628.1,363.4 656,350.5 
	668.9,315.4 635.7,243.2 "/>
<polygon class="st0" points="572.7,359.7 539.5,287.5 567.4,274.7 556.3,250.6 528.4,263.4 515.4,298.6 548.6,370.8 583.8,383.8 
	611.7,370.9 600.6,346.9 "/>
<polygon class="st0" points="580.7,274.4 567.4,245.5 561.6,248.2 574.9,277 546.5,290.1 575.3,352.7 603.7,339.6 617,368.5 
	622.8,365.8 609.5,337 637.9,323.9 609.1,261.3 "/>
</svg>
